<svg xmlns="http://www.w3.org/2000/svg" width="188" height="48" fill="none"><g fill="#0c111d"><path d="M0 15.898h17.346L.284 32.96l2.757 2.757L20.1 18.655V36h.111L24 32.212V16.248L19.752 12H3.786L0 15.785zm47.26 9.666h3.302v3.068H47.26V33h-3.666v-4.368H34v-2.678l9.932-11.778h3.328zm-8.58 0h4.914v-6.006zm21.091-5.356c1.283 0 2.427.251 3.432.754a5.52 5.52 0 0 1 2.392 2.236c.59.988.884 2.175.884 3.562 0 2.063-.65 3.675-1.95 4.836-1.3 1.144-3.129 1.716-5.486 1.716-1.63 0-2.999-.269-4.108-.806-1.092-.537-1.924-1.248-2.496-2.132a6.378 6.378 0 0 1-.962-2.912h3.744c.555 2.01 1.82 3.016 3.796 3.016 1.213 0 2.132-.338 2.756-1.014.641-.676.962-1.586.962-2.73 0-1.161-.32-2.063-.962-2.704-.641-.659-1.551-.988-2.73-.988-1.56 0-2.756.65-3.588 1.95l-3.38-.338 1.274-10.478h12.038v3.068h-8.996l-.572 4.316c.936-.901 2.253-1.352 3.952-1.352zm21.139-6.032c2.618 0 4.984.624 7.098 1.872 2.132 1.23 3.198 3.744 3.198 7.54s-1.066 6.318-3.198 7.566C85.894 32.384 83.528 33 80.91 33h-6.344V14.176zm-.13 15.548c1.196-.017 2.262-.156 3.198-.416.954-.277 1.76-.867 2.418-1.768.676-.901 1.014-2.219 1.014-3.952 0-1.734-.338-3.05-1.014-3.952-.658-.901-1.464-1.49-2.418-1.768-.936-.277-2.002-.416-3.198-.416h-2.548v12.272zM99.809 18.7c1.508 0 2.799.338 3.874 1.014 1.092.659 1.898 1.603 2.418 2.834.537 1.23.762 2.678.676 4.342H96.273c.121 1.178.494 2.071 1.118 2.678.624.606 1.438.91 2.444.91.884 0 1.594-.217 2.132-.65.554-.433.927-.98 1.118-1.638h3.614c-.312 1.63-1.084 2.895-2.314 3.796-1.214.884-2.73 1.326-4.55 1.326-1.491 0-2.782-.303-3.874-.91a6.097 6.097 0 0 1-2.496-2.548c-.572-1.11-.858-2.392-.858-3.848 0-1.439.294-2.713.884-3.822a6.222 6.222 0 0 1 2.522-2.574c1.092-.607 2.357-.91 3.796-.91zm3.354 5.902c-.104-.936-.442-1.69-1.014-2.262-.555-.572-1.344-.858-2.366-.858-.936 0-1.699.26-2.288.78-.59.52-.98 1.3-1.17 2.34zm18.861-5.59v13.416c0 1.82-.58 3.285-1.742 4.394-1.161 1.126-2.86 1.69-5.096 1.69-1.941 0-3.484-.434-4.628-1.3-1.144-.85-1.82-1.994-2.028-3.432h3.562c.416 1.282 1.448 1.924 3.094 1.924 1.144 0 1.976-.286 2.496-.858.52-.555.78-1.378.78-2.47v-1.872c-.97 1.49-2.435 2.236-4.394 2.236-1.23 0-2.314-.278-3.25-.832-.918-.572-1.638-1.387-2.158-2.444-.502-1.057-.754-2.305-.754-3.744s.252-2.687.754-3.744c.52-1.057 1.24-1.863 2.158-2.418.936-.572 2.02-.858 3.25-.858 1.976 0 3.441.745 4.394 2.236v-1.924zm-6.994 10.92c1.162 0 2.054-.39 2.678-1.17s.936-1.794.936-3.042-.312-2.262-.936-3.042-1.516-1.17-2.678-1.17c-1.178 0-2.062.398-2.652 1.196-.572.78-.858 1.785-.858 3.016 0 1.23.286 2.244.858 3.042.59.78 1.474 1.17 2.652 1.17zm16.715-11.076c.295 0 .59.026.884.078v3.562a6.004 6.004 0 0 0-.988-.078c-1.092 0-1.907.26-2.444.78a3.297 3.297 0 0 0-1.014 1.794c-.139.676-.208 1.465-.208 2.366V33h-3.562V19.012h3.51v2.392c.763-1.699 2.037-2.548 3.822-2.548zm8.855-.156c1.508 0 2.8.338 3.874 1.014 1.092.659 1.898 1.603 2.418 2.834.538 1.23.763 2.678.676 4.342h-10.504c.122 1.178.494 2.071 1.118 2.678.624.606 1.439.91 2.444.91.884 0 1.595-.217 2.132-.65a3.14 3.14 0 0 0 1.118-1.638h3.614c-.312 1.63-1.083 2.895-2.314 3.796-1.213.884-2.73 1.326-4.55 1.326-1.49 0-2.782-.303-3.874-.91a6.097 6.097 0 0 1-2.496-2.548c-.572-1.11-.858-2.392-.858-3.848 0-1.439.295-2.713.884-3.822a6.226 6.226 0 0 1 2.522-2.574c1.092-.607 2.358-.91 3.796-.91zm3.354 5.902c-.104-.936-.442-1.69-1.014-2.262-.554-.572-1.343-.858-2.366-.858-.936 0-1.698.26-2.288.78-.589.52-.979 1.3-1.17 2.34zm11.894-5.902c1.508 0 2.799.338 3.874 1.014 1.092.659 1.898 1.603 2.418 2.834.537 1.23.762 2.678.676 4.342h-10.504c.121 1.178.494 2.071 1.118 2.678.624.606 1.438.91 2.444.91.884 0 1.594-.217 2.132-.65.554-.433.927-.98 1.118-1.638h3.614c-.312 1.63-1.084 2.895-2.314 3.796-1.214.884-2.73 1.326-4.55 1.326-1.491 0-2.782-.303-3.874-.91a6.097 6.097 0 0 1-2.496-2.548c-.572-1.11-.858-2.392-.858-3.848 0-1.439.294-2.713.884-3.822a6.22 6.22 0 0 1 2.522-2.574c1.092-.607 2.357-.91 3.796-.91zm3.354 5.902c-.104-.936-.442-1.69-1.014-2.262-.555-.572-1.344-.858-2.366-.858-.936 0-1.699.26-2.288.78-.59.52-.98 1.3-1.17 2.34zm11.394 8.71c-2.115 0-3.753-.468-4.914-1.404s-1.82-2.115-1.976-3.536h3.562c.468 1.49 1.603 2.236 3.406 2.236.832 0 1.482-.147 1.95-.442.468-.312.702-.71.702-1.196 0-.52-.26-.884-.78-1.092-.503-.225-1.369-.45-2.6-.676-1.144-.19-2.123-.416-2.938-.676a5.387 5.387 0 0 1-2.106-1.3c-.589-.59-.884-1.378-.884-2.366 0-1.404.589-2.444 1.768-3.12 1.179-.693 2.617-1.04 4.316-1.04 1.872 0 3.363.407 4.472 1.222 1.127.815 1.794 1.907 2.002 3.276h-3.562c-.208-.572-.546-1.014-1.014-1.326-.451-.312-1.109-.468-1.976-.468-.745 0-1.343.121-1.794.364-.433.243-.65.572-.65.988 0 .364.173.667.52.91.364.225.763.39 1.196.494s1.179.26 2.236.468c1.872.347 3.233.806 4.082 1.378s1.274 1.439 1.274 2.6c0 1.421-.546 2.565-1.638 3.432-1.092.85-2.643 1.274-4.654 1.274zm12.423-10.764c-.78 0-1.508-.173-2.184-.52a4.2 4.2 0 0 1-1.586-1.534c-.382-.659-.572-1.421-.572-2.288 0-.867.19-1.63.572-2.288a4.008 4.008 0 0 1 1.586-1.508c.676-.364 1.404-.546 2.184-.546s1.499.182 2.158.546a3.923 3.923 0 0 1 1.612 1.534c.398.659.598 1.413.598 2.262 0 .85-.2 1.612-.598 2.288a4.158 4.158 0 0 1-1.612 1.534 4.564 4.564 0 0 1-2.158.52zm0-2.184c.589 0 1.057-.19 1.404-.572.364-.399.546-.928.546-1.586 0-.659-.182-1.179-.546-1.56-.347-.381-.815-.572-1.404-.572-.572 0-1.04.19-1.404.572-.347.381-.52.901-.52 1.56s.173 1.187.52 1.586c.364.381.832.572 1.404.572z"/><path fill-rule="evenodd" d="M183.035 16.27a1.944 1.944 0 1 0-.001 3.889 1.944 1.944 0 0 0 .001-3.89zm0 6.3a4.355 4.355 0 1 0 0-8.71 4.355 4.355 0 0 0 0 8.71z" clip-rule="evenodd"/></g></svg>